<?xml version="1.0" standalone="no"?>
<!DOCTYPE svg PUBLIC "-//W3C//DTD SVG 20010904//EN"
 "http://www.w3.org/TR/2001/REC-SVG-20010904/DTD/svg10.dtd">
<svg version="1.0" xmlns="http://www.w3.org/2000/svg"
 width="301.000000pt" height="100.000000pt" viewBox="0 0 301.000000 100.000000"
 preserveAspectRatio="xMidYMid meet">

<g transform="translate(0.000000,100.000000) scale(0.100000,-0.100000)"
fill="#000000" stroke="none">
<path d="M1195 989 c-158 -12 -342 -37 -480 -66 -115 -24 -124 -28 -219 -91
-55 -37 -121 -88 -148 -114 -42 -41 -49 -53 -46 -80 4 -43 38 -65 182 -118
122 -44 158 -69 140 -98 -16 -25 -108 -59 -252 -94 -70 -17 -147 -36 -172 -42
l-45 -12 105 -51 c299 -145 715 -218 1245 -218 350 0 608 27 875 90 386 92
630 249 630 405 0 71 -58 153 -155 220 -289 199 -1015 317 -1660 269z m-281
-305 c21 -8 23 -94 2 -94 -31 0 -37 -26 -16 -71 24 -53 25 -81 5 -119 -20 -38
-66 -62 -113 -58 -37 3 -37 4 -40 51 -3 44 -2 47 22 47 36 0 38 12 15 65 -15
33 -19 59 -15 83 10 66 85 117 140 96z m253 -19 c36 -24 43 -54 43 -191 l0
-124 -50 0 -49 0 -3 118 c-2 96 -6 117 -18 117 -10 0 -16 -12 -18 -37 -3 -30
0 -38 13 -38 13 0 16 -9 13 -42 -2 -28 -7 -42 -15 -41 -9 2 -13 -10 -13 -37
l0 -40 -50 0 -50 0 0 125 c0 158 10 180 90 209 24 8 80 -2 107 -19z m497 19
c11 -4 16 -19 16 -49 0 -34 -4 -44 -20 -48 -24 -6 -26 -34 -5 -73 8 -16 15
-46 15 -67 0 -31 -7 -46 -35 -74 -31 -31 -39 -34 -82 -31 l-48 3 -3 47 c-3 44
-2 47 25 50 33 4 34 19 7 89 -17 44 -17 47 2 85 25 52 86 84 128 68z m429 -35
c27 -29 27 -31 27 -164 l0 -135 -50 0 -50 0 0 113 c0 63 -3 117 -7 120 -3 4
-12 2 -20 -4 -9 -8 -13 -41 -13 -120 l0 -109 -51 0 -51 0 3 129 c4 113 7 133
25 158 44 59 138 65 187 12z m658 30 c79 -27 123 -95 117 -180 -7 -104 -80
-165 -185 -157 -147 12 -208 176 -107 288 47 52 112 70 175 49z m-1261 -49 l0
-50 -40 0 -40 0 0 -115 0 -115 -50 0 -50 0 0 115 0 115 -35 0 -35 0 0 50 0 50
125 0 125 0 0 -50z m340 -115 l0 -165 -50 0 -50 0 0 165 0 165 50 0 50 0 0
-165z m587 142 c127 -67 100 -270 -42 -306 -73 -18 -75 -17 -75 39 0 48 1 49
35 56 95 17 82 134 -15 134 l-40 0 0 -115 0 -115 -50 0 -50 0 0 166 0 166 103
-4 c70 -3 112 -9 134 -21z"/>
<path d="M2656 569 c-52 -41 -23 -129 44 -129 65 0 93 78 45 125 -30 30 -54
31 -89 4z"/>
<path d="M410 841 c-221 -79 -351 -170 -395 -275 -35 -83 -7 -159 91 -248 l29
-27 126 29 c260 58 356 93 346 123 -2 7 -59 33 -126 59 -166 64 -200 87 -201
138 0 14 14 43 32 64 27 33 137 121 204 163 33 21 2 13 -106 -26z"/>
</g>
</svg>
